<svg height="512pt" viewBox="0 0 512 512" width="512pt" xmlns="http://www.w3.org/2000/svg"><path d="m512 256c0 141.386719-114.613281 256-256 256s-256-114.613281-256-256 114.613281-256 256-256 256 114.613281 256 256zm0 0" fill="#19cffc"/><path d="m270.9375 511.554688c134.429688-7.738282 241.0625-119.1875 241.0625-255.554688 0-21.464844-2.65625-42.304688-7.632812-62.226562l-91.386719-92.285157-77.164063 18.632813-43.117187-43.121094-39.292969 230.40625-74.40625-74.40625-102 29 141.421875 141.421875-24.039063 31.578125zm0 0" fill="#4ab8f7"/><path d="m304.140625 286.71875v-178.578125c0-26.585937-21.554687-48.140625-48.140625-48.140625s-48.140625 21.554688-48.140625 48.140625v178.578125c-26.667969 16.257812-44.476563 45.621094-44.476563 79.140625 0 51.152344 41.464844 92.621094 92.617188 92.621094s92.617188-41.46875 92.617188-92.621094c0-33.519531-17.808594-62.882813-44.476563-79.140625zm0 0" fill="#fff"/><path d="m304.140625 286.71875v-178.578125c0-26.589844-21.554687-48.140625-48.140625-48.140625-.121094 0-.238281.007812-.355469.007812v398.464844c.117188 0 .238281.003906.355469.003906 51.152344 0 92.617188-41.464843 92.617188-92.617187 0-33.519531-17.808594-62.882813-44.476563-79.140625zm0 0" fill="#e9edf5"/><path d="m279.90625 310.089844v-73.445313c0-13.203125-10.703125-23.90625-23.90625-23.90625s-23.90625 10.703125-23.90625 23.90625v73.445313c-21.617188 9.277344-36.761719 30.753906-36.761719 55.769531 0 33.507813 27.160157 60.667969 60.667969 60.667969s60.667969-27.160156 60.667969-60.667969c0-25.015625-15.144531-46.492187-36.761719-55.769531zm0 0" fill="#4a7aff"/><path d="m279.90625 310.089844v-73.445313c0-13.203125-10.703125-23.90625-23.90625-23.90625-.121094 0-.238281.007813-.355469.011719v213.769531c.117188 0 .234375.007813.355469.007813 33.507812 0 60.667969-27.160156 60.667969-60.667969 0-25.015625-15.144531-46.492187-36.761719-55.769531zm0 0" fill="#2864f0"/><path d="m373 190.5c-29.5 0-53.5-24-53.5-53.5s24-53.5 53.5-53.5 53.5 24 53.5 53.5-24 53.5-53.5 53.5zm0-76c-12.40625 0-22.5 10.09375-22.5 22.5s10.09375 22.5 22.5 22.5 22.5-10.09375 22.5-22.5-10.09375-22.5-22.5-22.5zm0 0" fill="#e9edf5"/><path d="m77 233h102v29h-102zm0 0" fill="#fff"/></svg>