<svg height="420pt" viewBox="-38 0 420 420.192" width="420pt" xmlns="http://www.w3.org/2000/svg"><path d="m344.425781 175.695312c.210938 31.570313-16.507812 60.835938-43.816406 76.679688-27.304687 15.847656-61.007813 15.847656-88.3125 0-27.304687-15.84375-44.027344-45.109375-43.8125-76.679688 0-48.582031 87.972656-175.6874995 87.972656-175.6874995s87.96875 127.0976565 87.96875 175.6874995zm0 0" fill="#d9ecf2"/><path d="m256.453125 0s-5.3125 7.695312-13.3125 19.960938c24.585937 37.734374 74.660156 119.066406 74.660156 155.734374-.011719 43.441407-31.722656 80.375-74.660156 86.960938 25.355469 3.859375 51.136719-3.527344 70.597656-20.238281 19.460938-16.707031 30.664063-41.074219 30.6875-66.722657 0-48.589843-87.972656-175.695312-87.972656-175.695312zm0 0" fill="#bdd9e5"/><path d="m214.261719 66.601562c-22.570313 38.511719-45.761719 84.136719-45.761719 109.085938.003906 32.640625 18.074219 62.59375 46.949219 77.8125s63.800781 13.199219 90.726562-5.246094c-15.175781-52.742187-58.601562-128.222656-91.914062-181.652344zm0 0" fill="#bdd9e5"/><path d="m279.007812 280.734375c0 77.019531-62.4375 139.457031-139.457031 139.457031s-139.4531248-62.4375-139.4531248-139.457031 139.4531248-278.511719 139.4531248-278.511719 139.457031 201.472656 139.457031 278.511719zm0 0" fill="#26a3b9"/><g fill="#168aa5"><path d="m227.484375 187.15625 19.304687 19.308594-156.308593 156.308594-19.308594-19.308594zm0 0"/><path d="m126.574219 196.621094c10.589843 10.589844 10.589843 27.757812 0 38.347656-10.589844 10.589844-27.757813 10.589844-38.347657 0-10.589843-10.589844-10.589843-27.757812 0-38.347656 10.589844-10.589844 27.757813-10.589844 38.347657 0zm0 0"/><path d="m229.730469 314.960938c10.589843 10.589843 10.589843 27.757812 0 38.347656-10.589844 10.589844-27.757813 10.589844-38.347657 0-10.589843-10.589844-10.589843-27.757813 0-38.347656 10.589844-10.589844 27.757813-10.589844 38.347657 0zm0 0"/><path d="m139.550781 2.222656s-7.769531 11.230469-19.636719 29.390625c38.402344 58.796875 119.820313 190.277344 119.820313 249.121094-.007813 69.425781-51.082031 128.273437-119.8125 138.054687 40.011719 5.71875 80.535156-6.214843 111.0625-32.703124 30.527344-26.492188 48.050781-64.929688 48.023437-105.351563 0-77.039063-139.457031-278.511719-139.457031-278.511719zm0 0"/></g><path d="m208.058594 187.15625 19.304687 19.304688-156.308593 156.3125-19.308594-19.308594zm0 0" fill="#d9ecf2"/><path d="m107.148438 196.621094c10.589843 10.589844 10.589843 27.757812 0 38.347656-10.589844 10.589844-27.757813 10.589844-38.347657 0-10.589843-10.589844-10.589843-27.757812 0-38.347656 10.589844-10.589844 27.757813-10.589844 38.347657 0zm0 0" fill="#d9ecf2"/><path d="m210.304688 314.960938c10.589843 10.589843 10.589843 27.757812 0 38.347656-10.589844 10.589844-27.757813 10.589844-38.347657 0-10.589843-10.589844-10.589843-27.757813 0-38.347656 10.589844-10.589844 27.757813-10.589844 38.347657 0zm0 0" fill="#d9ecf2"/></svg>